<?xml version="1.0" standalone="no"?>
<!DOCTYPE svg PUBLIC "-//W3C//DTD SVG 20010904//EN"
 "http://www.w3.org/TR/2001/REC-SVG-20010904/DTD/svg10.dtd">
<svg version="1.0" xmlns="http://www.w3.org/2000/svg"
 width="894.000000pt" height="894.000000pt" viewBox="0 0 894.000000 894.000000"
 preserveAspectRatio="xMidYMid meet">
<metadata>
Created by potrace 1.14, written by Peter Selinger 2001-2017
</metadata>
<g transform="translate(0.000000,894.000000) scale(0.100000,-0.100000)"
fill="#000000" stroke="none">
<path d="M2570 8340 l0 -600 500 0 500 0 0 195 0 195 -280 0 -280 0 0 190 0
190 280 0 280 0 0 215 0 215 -500 0 -500 0 0 -600z"/>
<path d="M3980 8723 l0 -217 193 -187 192 -188 -192 0 -193 -1 0 -195 0 -195
495 0 495 0 0 197 0 197 -192 188 -193 187 193 0 192 1 0 215 0 215 -495 0
-495 0 0 -217z"/>
<path d="M5370 8728 l0 -213 192 -192 193 -193 -193 0 -192 0 0 -195 0 -195
500 0 500 0 0 193 0 194 -194 191 -194 192 194 0 194 0 0 215 0 215 -500 0
-500 0 0 -212z"/>
<path d="M1280 7173 c-2 -37 596 -6469 602 -6473 4 -3 589 -162 1300 -353
l1293 -348 1293 349 c711 192 1294 351 1295 353 3 4 598 6455 597 6472 0 4
-1435 7 -3190 7 -1754 0 -3190 -3 -3190 -7z"/>
</g>
</svg>
